<svg xmlns="http://www.w3.org/2000/svg" viewBox="0 0 1200 300">
  <defs>
    <style>
      .cls-1 { fill: #000E2F; }
      .cls-2 { fill: #000E2F; }
    </style>
  </defs>
  <g>
     U 
    <path class="cls-1" d="M50,50 L50,180 Q50,220 90,220 Q130,220 130,180 L130,50 L170,50 L170,180 Q170,250 90,250 Q10,250 10,180 L10,50 Z"/>
    
     C 
    <path class="cls-1" d="M200,150 Q200,80 270,80 Q320,80 340,110 L310,140 Q300,120 270,120 Q240,120 240,150 Q240,180 270,180 Q300,180 310,160 L340,190 Q320,220 270,220 Q200,220 200,150 Z"/>
    
     O 
    <path class="cls-1" d="M370,150 Q370,80 440,80 Q510,80 510,150 Q510,220 440,220 Q370,220 370,150 Z M410,150 Q410,120 440,120 Q470,120 470,150 Q470,180 440,180 Q410,180 410,150 Z"/>
    
     N 
    <path class="cls-1" d="M540,50 L580,50 L580,160 L640,50 L680,50 L680,220 L640,220 L640,110 L580,220 L540,220 Z"/>
    
     N 
    <path class="cls-1" d="M710,50 L750,50 L750,160 L810,50 L850,50 L850,220 L810,220 L810,110 L750,220 L710,220 Z"/>
    
     Husky Dog Icon 
    <g transform="translate(900, 80)">
      <ellipse class="cls-2" cx="80" cy="70" rx="60" ry="55"/>
      <ellipse class="cls-1" cx="65" cy="60" rx="8" ry="10"/>
      <ellipse class="cls-1" cx="95" cy="60" rx="8" ry="10"/>
      <path class="cls-2" d="M50,40 Q45,20 35,25 Q30,28 32,35 Q35,42 45,45 Z"/>
      <path class="cls-2" d="M110,40 Q115,20 125,25 Q130,28 128,35 Q125,42 115,45 Z"/>
      <path class="cls-1" d="M70,75 Q80,82 90,75"/>
      <circle class="cls-1" cx="80" cy="70" r="3"/>
    </g>
  </g>
</svg>
